HIERARCHY
ROOT Hips
{
	OFFSET 0.000000 0.000000 0.000000
	CHANNELS 6 Xposition Yposition Zposition Zrotation Yrotation Xrotation 
	JOINT LHipJoint
	{
		OFFSET 0.000000 0.000000 0.000000
		CHANNELS 3 Zrotation Yrotation Xrotation
		JOINT LeftUpLeg
		{
			OFFSET 1.363060 -1.794630 0.839290
			CHANNELS 3 Zrotation Yrotation Xrotation
			JOINT LeftLeg
			{
				OFFSET 2.448110 -6.726130 0.000000
				CHANNELS 3 Zrotation Yrotation Xrotation
				JOINT LeftFoot
				{
					OFFSET 2.562200 -7.039590 0.000000
					CHANNELS 3 Zrotation Yrotation Xrotation
					JOINT LeftToeBase
					{
						OFFSET 0.157640 -0.433110 2.322550
						CHANNELS 3 Zrotation Yrotation Xrotation
						End Site
						{
							OFFSET 0.000000 0.000000 0.000000
						}
					}
				}
			}
		}
	}
	JOINT RHipJoint
	{
		OFFSET 0.000000 0.000000 0.000000
		CHANNELS 3 Zrotation Yrotation Xrotation
		JOINT RightUpLeg
		{
			OFFSET -1.305520 -1.794630 0.839290
			CHANNELS 3 Zrotation Yrotation Xrotation
			JOINT RightLeg
			{
				OFFSET -2.542530 -6.985550 0.000000
				CHANNELS 3 Zrotation Yrotation Xrotation
				JOINT RightFoot
				{
					OFFSET -2.568260 -7.056230 0.000000
					CHANNELS 3 Zrotation Yrotation Xrotation
					JOINT RightToeBase
					{
						OFFSET -0.164730 -0.452590 2.363150
						CHANNELS 3 Zrotation Yrotation Xrotation
						End Site
						{
							OFFSET 0.000000 0.000000 0.000000
						}
					}
				}
			}
		}
	}
	JOINT LowerBack
	{
		OFFSET 0.000000 0.000000 0.000000
		CHANNELS 3 Zrotation Yrotation Xrotation
		JOINT Spine
		{
			OFFSET 0.028270 2.035590 -0.193380
			CHANNELS 3 Zrotation Yrotation Xrotation
			JOINT Spine1
			{
				OFFSET 0.056720 2.048850 -0.042750
				CHANNELS 3 Zrotation Yrotation Xrotation
				JOINT Neck
				{
					OFFSET 0.000000 0.000000 0.000000
					CHANNELS 3 Zrotation Yrotation Xrotation
					JOINT Neck1
					{
						OFFSET -0.054170 1.746240 0.172020
						CHANNELS 3 Zrotation Yrotation Xrotation
						JOINT Head
						{
							OFFSET 0.104070 1.761360 -0.123970
							CHANNELS 3 Zrotation Yrotation Xrotation
							End Site
							{
								OFFSET 0.000000 0.000000 0.000000
							}
						}
					}
				}
				JOINT LeftShoulder
				{
					OFFSET 0.000000 0.000000 0.000000
					CHANNELS 3 Zrotation Yrotation Xrotation
					JOINT LeftArm
					{
						OFFSET 3.362410 1.200890 -0.311210
						CHANNELS 3 Zrotation Yrotation Xrotation
						JOINT LeftForeArm
						{
							OFFSET 4.983000 -0.000000 -0.000000
							CHANNELS 3 Zrotation Yrotation Xrotation
							JOINT LeftHand
							{
								OFFSET 3.483560 -0.000000 -0.000000
								CHANNELS 3 Zrotation Yrotation Xrotation
								JOINT LeftFingerBase
								{
									OFFSET 0.000000 0.000000 0.000000
									CHANNELS 3 Zrotation Yrotation Xrotation
									JOINT LeftHandIndex1
									{
										OFFSET 0.715260 -0.000000 -0.000000
										CHANNELS 3 Zrotation Yrotation Xrotation
										End Site
										{
											OFFSET 0.000000 0.000000 0.000000
										}
									}
								}
								JOINT LThumb
								{
									OFFSET 0.000000 0.000000 0.000000
									CHANNELS 3 Zrotation Yrotation Xrotation
									End Site
									{
										OFFSET 0.000000 0.000000 0.000000
									}
								}
							}
						}
					}
				}
				JOINT RightShoulder
				{
					OFFSET 0.000000 0.000000 0.000000
					CHANNELS 3 Zrotation Yrotation Xrotation
					JOINT RightArm
					{
						OFFSET -3.136600 1.374050 -0.404650
						CHANNELS 3 Zrotation Yrotation Xrotation
						JOINT RightForeArm
						{
							OFFSET -5.241900 -0.000000 -0.000000
							CHANNELS 3 Zrotation Yrotation Xrotation
							JOINT RightHand
							{
								OFFSET -3.444170 -0.000000 -0.000000
								CHANNELS 3 Zrotation Yrotation Xrotation
								JOINT RightFingerBase
								{
									OFFSET 0.000000 0.000000 0.000000
									CHANNELS 3 Zrotation Yrotation Xrotation
									JOINT RightHandIndex1
									{
										OFFSET -0.622530 -0.000000 -0.000000
										CHANNELS 3 Zrotation Yrotation Xrotation
										End Site
										{
											OFFSET 0.000000 0.000000 0.000000
										}
									}
								}
								JOINT RThumb
								{
									OFFSET 0.000000 0.000000 0.000000
									CHANNELS 3 Zrotation Yrotation Xrotation
									End Site
									{
										OFFSET 0.000000 0.000000 0.000000
									}
								}
							}
						}
					}
				}
			}
		}
	}
}
MOTION
Frames: 12
Frame Time: 0.008333
-6.309114 17.467582 -14.026162 -156.334229 68.574874 -146.567940 -3.536950 -3.618532 -2.850197 -2.540174 3.416580 -36.052421 8.667189 17.538159 55.327069 2.336945 -4.642815 -3.092651 1.352900 -7.363300 -20.796100 4.634077 1.949624 1.246743 21.407574 -1.148601 -10.913714 -0.249569 -8.582773 23.633796 -2.500191 4.461750 -10.311102 -0.944200 6.188800 -17.333200 5.395218 0.600476 6.766055 1.200439 0.881099 -2.929374 2.566801 0.991741 0.491225 -7.795600 -6.540770 -8.489749 6.374595 -7.805483 7.868025 4.131500 -3.886000 7.008900 -6.544642 2.715167 -2.193235 -78.341893 2.528612 20.898303 14.931466 -29.850826 -5.436143 0.748490 -2.931719 8.161997 0.684863 34.786351 -0.255900 -7.125000 0.000000 0.000000 -42.036100 62.521600 -19.697300 2.353615 -1.194950 -0.533862 68.664135 8.251997 12.749013 -20.196946 31.479798 -6.845062 0.175695 -0.128449 -22.504879 -9.181857 13.276223 -2.181700 7.125000 0.000000 0.000000 12.389900 -16.544800 8.552900 
-6.241366 17.464668 -14.072784 -154.804740 68.548059 -145.053038 -3.405936 -3.632180 -2.996191 -1.924348 3.416520 -36.602560 8.468974 17.410863 54.593698 2.249559 -4.244786 -3.130819 1.708000 -8.229300 -23.412700 4.629793 1.933849 1.312560 21.872755 -1.015381 -10.403873 -0.134805 -8.335557 22.927445 -2.540986 4.677206 -10.120289 -0.903600 6.057900 -16.952500 5.993287 0.824435 6.984893 1.186288 1.229399 -2.921975 2.198184 1.188534 0.384507 -7.453144 -6.517883 -8.332066 6.320504 -7.840674 7.649687 4.039300 -3.887500 6.830000 -6.519356 2.696384 -2.178628 -78.477796 2.551144 20.354906 15.021353 -29.915595 -5.476991 0.729469 -2.929125 8.552820 0.840998 34.736463 -0.160200 -7.125000 0.000000 0.000000 -41.815700 62.521300 -19.573800 2.364284 -1.167744 -0.513104 68.362752 8.881982 13.088642 -20.476121 31.759372 -6.997373 0.154187 -0.135434 -23.066444 -8.701288 13.508832 -2.096300 7.125000 0.000000 0.000000 12.723500 -16.344000 8.852100 
-6.154781 17.459673 -14.121488 -154.915853 68.667277 -145.183825 -3.389802 -3.677470 -3.086659 -1.812546 3.242581 -36.894640 8.199783 17.260569 53.749011 2.222680 -4.063140 -3.146788 1.631300 -8.051800 -22.871600 4.633126 1.887274 1.415553 21.638786 -1.311659 -9.962139 -0.082261 -8.179818 22.486598 -2.720884 5.302369 -10.052348 -0.822100 5.785300 -16.162800 5.907427 0.995317 7.256743 1.125662 1.468612 -2.943749 1.964419 1.317340 0.076288 -7.189296 -6.567530 -7.965061 6.348596 -7.963212 7.416205 4.002200 -3.932900 6.637700 -6.521880 2.683375 -2.213129 -77.816742 3.292583 20.897557 15.405663 -30.457316 -5.736554 0.797835 -2.937903 7.836734 0.259886 34.816170 -0.535900 -7.125000 0.000000 0.000000 -42.512000 62.424600 -19.867800 2.344249 -1.126074 -0.483177 68.041774 9.070864 13.882997 -20.942366 32.218699 -7.240210 0.169127 -0.128183 -24.074034 -9.071371 13.447153 -2.179600 7.125000 0.000000 0.000000 12.465900 -16.382500 8.653100 
-6.070278 17.451555 -14.167590 -155.773676 68.741959 -146.047685 -3.405322 -3.744223 -3.176222 -1.948007 3.061881 -37.202641 7.937477 17.121816 52.984645 2.256420 -4.183226 -2.744968 1.224200 -7.017600 -19.767500 4.636799 1.840492 1.521633 21.243836 -1.827841 -9.563328 -0.033141 -8.027521 22.065833 -2.737709 5.300594 -10.175549 -0.987300 6.324500 -17.728800 5.542855 1.046765 7.546546 1.074603 1.532419 -2.945434 1.979764 1.349150 -0.039662 -7.284397 -6.717260 -8.061737 6.506703 -8.146226 7.354587 4.098800 -4.008300 6.727800 -6.551871 2.687324 -2.293318 -76.471296 4.322724 22.537617 16.044888 -31.396456 -6.195674 0.923468 -2.944585 5.712059 -0.381974 34.891418 -0.942900 -7.125000 0.000000 0.000000 -43.272200 62.327200 -20.197500 2.315624 -1.090408 -0.463201 67.628212 9.653066 14.669647 -21.337805 32.587711 -7.443896 0.170379 -0.123500 -25.191204 -9.074094 13.449101 -2.180200 7.125000 0.000000 0.000000 12.464300 -16.382200 8.652100 
-5.998471 17.439692 -14.214941 -156.116670 68.789292 -146.352602 -3.390467 -3.809413 -3.298329 -1.914915 2.839615 -37.625598 7.692060 16.991190 52.236925 2.170123 -3.867663 -2.612363 1.382700 -7.440300 -21.026700 4.638510 1.806871 1.588751 21.055267 -1.745657 -9.059262 0.033146 -7.868265 21.634603 -2.642431 4.974085 -10.132965 -0.987900 6.326200 -17.733900 5.419141 1.155358 7.789799 1.042008 1.682069 -2.909250 1.854316 1.421322 0.047862 -7.258316 -6.792580 -8.251065 6.666275 -8.255089 7.131778 4.162500 -4.034300 6.682500 -6.573207 2.661962 -2.233381 -77.234600 3.428419 21.255109 15.594530 -30.722602 -5.886490 0.870034 -2.931738 6.974544 -0.393511 34.586319 -0.947900 -7.125000 0.000000 0.000000 -42.859500 62.072900 -19.709200 2.299460 -1.053445 -0.450443 67.288441 10.522006 15.003075 -21.702603 32.927646 -7.641307 0.159451 -0.115668 -25.996508 -8.772885 13.391613 -2.095100 7.125000 0.000000 0.000000 12.677400 -16.466500 8.783800 
-5.929891 17.412530 -14.263541 -154.892078 68.526289 -145.079508 -3.258785 -3.846158 -3.468605 -1.211780 2.543569 -38.228106 7.482471 16.851764 51.474054 2.131075 -3.721755 -2.276449 1.778500 -8.388700 -23.901000 4.629520 1.798130 1.636733 21.594153 -1.237853 -8.519812 0.117641 -7.691844 21.158560 -2.487574 4.517941 -10.003748 -0.854700 5.895900 -16.482800 6.096539 1.284930 7.941818 1.045880 1.908250 -2.899595 1.537325 1.555570 0.015756 -7.188103 -6.863023 -8.136752 6.703603 -8.361017 6.807859 4.190900 -4.073300 6.494700 -6.568048 2.659400 -2.203020 -77.571675 3.229418 20.744141 15.563779 -30.619431 -5.847646 0.867658 -2.927362 7.469312 -0.611151 34.528043 -1.091200 -7.125000 0.000000 0.000000 -42.990100 61.955400 -19.662800 2.290528 -1.024300 -0.423000 66.893351 11.219377 15.255982 -22.105648 33.305807 -7.866078 0.169131 -0.108082 -26.747939 -9.015126 13.288859 -2.139300 7.125000 0.000000 0.000000 12.510500 -16.555200 8.637400 
-5.851528 17.388178 -14.306625 -152.616698 68.115422 -142.954729 -3.058372 -3.837407 -3.627228 -0.073903 2.390301 -38.695674 7.277087 16.681658 50.659707 2.325273 -4.456985 -0.923834 1.598700 -7.974900 -22.637700 4.591192 1.788355 1.680242 22.650669 -0.735713 -7.794953 0.205768 -7.500052 20.629080 -2.335061 4.096178 -9.910205 -0.705200 5.367500 -14.959600 7.117240 1.370290 8.229444 1.084432 2.128623 -2.901119 1.268301 1.690496 -0.084792 -7.168236 -6.993384 -8.141465 6.749858 -8.532471 6.677576 4.225300 -4.148800 6.489900 -6.554965 2.653619 -2.231582 -77.132650 3.661312 21.110058 15.927048 -31.091985 -6.088955 0.938680 -2.928620 6.637019 -1.180383 34.631775 -1.458200 -7.125000 0.000000 0.000000 -43.689200 61.880000 -19.973900 2.300164 -0.988876 -0.404558 66.378538 11.849103 15.794940 -22.545049 33.702133 -8.105676 0.188561 -0.099558 -27.752479 -9.483118 13.175878 -2.237200 7.125000 0.000000 0.000000 12.184000 -16.636600 8.379000 
-5.761717 17.381518 -14.360636 -152.089222 68.156668 -142.493702 -3.000180 -3.869801 -3.726014 0.268011 2.256245 -38.983857 7.019038 16.509810 49.837909 2.408409 -4.812426 0.201740 1.276000 -7.159000 -20.187300 4.579346 1.736405 1.766006 22.752559 -0.565648 -7.040891 0.295676 -7.270065 19.992069 -2.308325 4.086339 -9.634543 -0.534200 4.683500 -13.007900 7.246566 1.512074 8.519379 1.054474 2.353988 -2.907924 1.165382 1.812546 -0.217401 -7.136479 -7.165580 -8.218262 6.828016 -8.763350 6.602501 4.251300 -4.248200 6.561700 -6.572625 2.646810 -2.311584 -75.506120 4.657084 23.110273 16.596334 -32.057268 -6.576662 1.073333 -2.934106 4.104076 -1.757732 34.836928 -1.825600 -7.125000 0.000000 0.000000 -44.551800 61.908000 -20.486700 2.300413 -0.951613 -0.385026 65.798550 12.400534 16.383565 -23.024685 34.127704 -8.370441 0.199085 -0.085254 -28.874685 -9.709777 12.965573 -2.257600 7.125000 0.000000 0.000000 12.028800 -16.836500 8.213600 
-5.670137 17.374441 -14.433275 -152.973582 68.396946 -143.312762 -3.057250 -3.953084 -3.814177 0.103787 1.882187 -39.180513 6.749014 16.365438 49.058247 2.407559 -4.765678 0.368530 1.266300 -7.132700 -20.109200 4.585705 1.673093 1.869610 22.175336 -0.787423 -6.444441 0.380167 -7.028159 19.331059 -2.260707 3.945583 -9.408285 -0.600900 4.962100 -13.800400 7.018823 1.682783 8.652788 0.998227 2.562381 -2.883067 0.980151 1.916055 -0.151621 -7.184516 -7.432095 -8.376913 6.787981 -9.106819 6.417521 4.199700 -4.409200 6.546400 -6.599430 2.618999 -2.244322 -76.660213 3.674471 21.522092 16.033905 -31.216721 -6.165010 0.968917 -2.926813 6.158859 -1.372824 34.481417 -1.574200 -7.125000 0.000000 0.000000 -43.690800 61.720900 -19.810600 2.284213 -0.917839 -0.375732 65.117844 13.012868 16.712602 -23.471135 34.536575 -8.630892 0.205740 -0.066004 -29.953466 -9.779855 12.778595 -2.243100 7.125000 0.000000 0.000000 11.980000 -17.028400 8.127300 
-5.577309 17.366012 -14.500711 -152.968261 68.496701 -143.291290 -3.046878 -4.011893 -3.919283 0.388594 1.465337 -39.343581 6.519622 16.222338 48.317139 2.630218 -5.440153 0.540346 1.362700 -7.388700 -20.872100 4.573750 1.630700 1.940342 22.061040 -0.868035 -5.903600 0.456147 -6.818797 18.760325 -2.090087 3.378073 -9.340776 -0.844200 5.860400 -16.379900 7.092395 1.816426 8.734761 0.976509 2.742997 -2.844064 0.847126 2.015263 0.015098 -7.222547 -7.618502 -8.563114 6.732244 -9.342245 6.211599 4.156400 -4.517100 6.501400 -6.599560 2.618332 -2.204679 -77.235589 3.227059 20.604482 15.880904 -30.952052 -6.040134 0.890599 -2.920419 7.269234 -0.710377 34.269315 -1.151900 -7.125000 0.000000 0.000000 -42.764100 61.730500 -19.310600 2.284873 -0.912569 -0.359531 64.446907 13.859462 16.951354 -23.774468 34.800145 -8.807499 0.216240 -0.049957 -30.941108 -9.939889 12.614061 -2.253600 7.125000 0.000000 0.000000 11.866800 -17.188100 8.004600 
-5.484064 17.346343 -14.558261 -152.094551 68.353133 -142.387812 -2.952315 -4.035429 -4.028089 1.006004 1.187172 -39.675663 6.346833 16.091790 47.694747 2.913353 -6.413241 1.148154 1.315500 -7.264700 -20.502100 4.546731 1.609437 2.008404 22.443107 -0.861546 -5.417355 0.529565 -6.607956 18.192710 -1.972063 3.040289 -9.173785 -0.972200 6.277300 -17.591200 7.406651 1.873140 8.886383 1.000885 2.860029 -2.869819 0.804708 2.086515 -0.154338 -7.176783 -7.606983 -8.530387 6.735086 -9.328524 6.112180 4.140200 -4.507000 6.456800 -6.553272 2.614938 -2.234819 -77.632549 3.883355 19.978445 16.223377 -31.360010 -6.252290 0.870030 -2.904264 8.031485 -0.630016 33.992406 -1.104200 -7.125000 0.000000 0.000000 -42.326100 61.520200 -18.860700 2.296452 -0.882154 -0.353947 63.779181 14.528842 17.479625 -24.089709 35.028913 -8.969353 0.246437 -0.037768 -32.208880 -10.573502 12.536547 -2.391800 7.125000 0.000000 0.000000 11.414800 -17.219200 7.678900 
-5.392172 17.309711 -14.619661 -150.966222 68.122365 -141.230892 -2.832290 -4.048754 -4.143144 1.671230 0.968416 -40.069158 6.239315 16.004794 47.273066 3.077076 -7.038283 1.784779 1.118700 -6.718800 -18.885000 4.512010 1.574053 2.076871 22.938041 -0.650591 -4.732701 0.612880 -6.365461 17.529848 -1.942358 3.047412 -8.833677 -0.828200 5.806000 -16.222600 7.953244 2.013999 8.961138 1.006623 3.098861 -2.888598 0.585649 2.220501 -0.254956 -7.054771 -7.687168 -8.482831 6.769676 -9.453532 5.940765 4.134900 -4.556500 6.383200 -6.562822 2.590696 -2.240251 -77.293408 3.854960 20.196372 16.212396 -31.352055 -6.261753 0.891282 -2.897842 8.060040 -0.990825 33.667117 -1.323000 -7.125000 0.000000 0.000000 -42.277700 61.170200 -18.482100 2.321276 -0.841678 -0.340271 62.924244 14.924838 17.849302 -24.519162 35.398245 -9.223552 0.274326 -0.022146 -33.672591 -11.100279 12.542788 -2.520500 7.125000 0.000000 0.000000 11.033500 -17.174300 7.423300 
